<svg width="93" height="22" viewBox="0 0 93 22" fill="none" xmlns="http://www.w3.org/2000/svg">
<path d="M5.38025 10.4577C6.21175 10.4577 6.86013 10.6854 7.32537 11.1407C7.80052 11.5862 8.03809 12.2098 8.03809 13.0116C8.03809 13.4274 7.949 13.8233 7.77082 14.1995C7.59264 14.5756 7.33032 14.8825 6.98386 15.1201C6.6374 15.3478 6.2068 15.4764 5.69206 15.5061L5.63267 15.2092C5.99892 15.2092 6.35528 15.2636 6.70174 15.3725C7.0581 15.4715 7.37487 15.6348 7.65203 15.8625C7.9292 16.0902 8.15193 16.3772 8.32021 16.7237C8.48849 17.0603 8.57263 17.4711 8.57263 17.9561C8.57263 18.4708 8.48354 18.9163 8.30536 19.2924C8.13708 19.6587 7.90445 19.9557 7.60749 20.1833C7.32042 20.411 6.98881 20.5793 6.61265 20.6882C6.2365 20.7971 5.84549 20.8515 5.43964 20.8515H1.44545C1.32666 20.8515 1.22272 20.807 1.13363 20.7179C1.04454 20.6288 1 20.5249 1 20.4061V10.9032C1 10.7844 1.04454 10.6804 1.13363 10.5913C1.22272 10.5023 1.32666 10.4577 1.44545 10.4577H5.38025ZM5.26146 11.3338H1.77211L1.95029 11.0665V15.2686L1.78696 15.0458H5.26146C5.7762 15.0359 6.2068 14.8677 6.55326 14.541C6.90962 14.2143 7.0878 13.7293 7.0878 13.0859C7.0878 12.5414 6.92942 12.1158 6.61265 11.8089C6.29589 11.4921 5.84549 11.3338 5.26146 11.3338ZM5.3654 15.9367H1.87605L1.95029 15.8476V20.1091L1.8612 19.9755H5.39509C6.02862 19.9755 6.55821 19.8171 6.98386 19.5003C7.40951 19.1737 7.62234 18.6589 7.62234 17.9561C7.62234 17.4612 7.5184 17.0652 7.31052 16.7682C7.10265 16.4713 6.82548 16.2584 6.47902 16.1298C6.13256 16.0011 5.76135 15.9367 5.3654 15.9367Z" fill="#333333"/>
<path d="M10.5678 20.4061C10.5678 20.5249 10.5232 20.6288 10.4341 20.7179C10.345 20.807 10.2411 20.8515 10.1223 20.8515C9.99362 20.8515 9.88473 20.807 9.79564 20.7179C9.71645 20.6288 9.67685 20.5249 9.67685 20.4061V13.5759C9.67685 13.4571 9.71645 13.3531 9.79564 13.264C9.88473 13.175 9.99362 13.1304 10.1223 13.1304C10.251 13.1304 10.3549 13.175 10.4341 13.264C10.5232 13.3531 10.5678 13.4571 10.5678 13.5759V20.4061ZM10.1223 12.1356C9.91443 12.1356 9.75604 12.091 9.64716 12.0019C9.54817 11.9029 9.49867 11.7644 9.49867 11.5862V11.4377C9.49867 11.2595 9.55312 11.1259 9.66201 11.0368C9.78079 10.9378 9.93917 10.8883 10.1371 10.8883C10.3252 10.8883 10.4688 10.9378 10.5678 11.0368C10.6766 11.1259 10.7311 11.2595 10.7311 11.4377V11.5862C10.7311 11.7644 10.6766 11.9029 10.5678 12.0019C10.4688 12.091 10.3203 12.1356 10.1223 12.1356Z" fill="#333333"/>
<path d="M19.2075 17.0504C19.2075 17.8027 19.0442 18.4807 18.7175 19.0846C18.3908 19.6785 17.9454 20.1487 17.3811 20.4952C16.8169 20.8317 16.1735 21 15.4509 21C14.748 21 14.1096 20.8317 13.5354 20.4952C12.9712 20.1487 12.5208 19.6785 12.1842 19.0846C11.8576 18.4807 11.6942 17.8027 11.6942 17.0504C11.6942 16.2881 11.8576 15.6101 12.1842 15.0161C12.5208 14.4222 12.9712 13.952 13.5354 13.6056C14.1096 13.2591 14.748 13.0859 15.4509 13.0859C16.1735 13.0859 16.8169 13.2591 17.3811 13.6056C17.9454 13.952 18.3908 14.4222 18.7175 15.0161C19.0442 15.6101 19.2075 16.2881 19.2075 17.0504ZM18.3166 17.0504C18.3166 16.4465 18.1929 15.912 17.9454 15.4467C17.6979 14.9716 17.3564 14.6004 16.9208 14.3331C16.4952 14.056 16.0052 13.9174 15.4509 13.9174C14.9163 13.9174 14.4313 14.056 13.9957 14.3331C13.5602 14.6004 13.2137 14.9716 12.9564 15.4467C12.7089 15.912 12.5851 16.4465 12.5851 17.0504C12.5851 17.6542 12.7089 18.1887 12.9564 18.654C13.2137 19.1192 13.5602 19.4904 13.9957 19.7676C14.4313 20.0349 14.9163 20.1685 15.4509 20.1685C16.0052 20.1685 16.4952 20.0349 16.9208 19.7676C17.3564 19.4904 17.6979 19.1192 17.9454 18.654C18.1929 18.1887 18.3166 17.6542 18.3166 17.0504Z" fill="#333333"/>
<path d="M20.8781 20.8515V10.4577H25.1099C26.2186 10.4577 27.1887 10.6804 28.0202 11.1259C28.8616 11.5614 29.5149 12.1702 29.9801 12.9522C30.4454 13.7342 30.678 14.635 30.678 15.6546C30.678 16.6742 30.4454 17.575 29.9801 18.357C29.5149 19.139 28.8616 19.7527 28.0202 20.1982C27.1887 20.6337 26.2186 20.8515 25.1099 20.8515H20.8781ZM21.9769 19.9012H25.0505C25.9711 19.9012 26.768 19.723 27.4411 19.3667C28.1241 19.0004 28.6537 18.5005 29.0299 17.867C29.406 17.2236 29.5941 16.4861 29.5941 15.6546C29.5941 14.8132 29.406 14.0757 29.0299 13.4422C28.6537 12.8087 28.1241 12.3138 27.4411 11.9574C26.768 11.5911 25.9711 11.408 25.0505 11.408H21.9769V19.9012Z" fill="#333333"/>
<path d="M37.6593 20.9406C36.8773 20.9406 36.1546 20.8119 35.4914 20.5546C34.8282 20.2873 34.2541 19.9161 33.769 19.4409C33.284 18.9658 32.9029 18.4065 32.6257 17.7631C32.3584 17.1196 32.2248 16.4168 32.2248 15.6546C32.2248 14.8924 32.3584 14.1896 32.6257 13.5462C32.9029 12.9027 33.284 12.3434 33.769 11.8683C34.264 11.3932 34.843 11.0269 35.5063 10.7695C36.1695 10.5023 36.8921 10.3686 37.6741 10.3686C38.4264 10.3686 39.1342 10.4973 39.7974 10.7547C40.4606 11.0022 41.0199 11.3783 41.4753 11.8832L40.7774 12.581C40.3518 12.1455 39.8816 11.8337 39.3668 11.6456C38.8521 11.4476 38.2977 11.3486 37.7038 11.3486C37.0802 11.3486 36.5011 11.4575 35.9666 11.6753C35.432 11.8832 34.9668 12.1851 34.5708 12.581C34.1749 12.9671 33.8631 13.4224 33.6354 13.9471C33.4176 14.4618 33.3087 15.031 33.3087 15.6546C33.3087 16.2782 33.4176 16.8524 33.6354 17.377C33.8631 17.8918 34.1749 18.3471 34.5708 18.7431C34.9668 19.1291 35.432 19.431 35.9666 19.6488C36.5011 19.8567 37.0802 19.9606 37.7038 19.9606C38.2977 19.9606 38.8521 19.8616 39.3668 19.6637C39.8816 19.4657 40.3518 19.1489 40.7774 18.7134L41.4753 19.4112C41.0199 19.9161 40.4606 20.2972 39.7974 20.5546C39.1342 20.8119 38.4215 20.9406 37.6593 20.9406Z" fill="#333333"/>
<path d="M41.8936 20.8515L46.645 10.4577H47.729L52.4804 20.8515H51.3222L46.9568 11.0962H47.4023L43.0369 20.8515H41.8936ZM43.7645 18.0749L44.0911 17.184H50.1344L50.461 18.0749H43.7645Z" fill="#333333"/>
<path d="M57.0655 20.9406C56.2934 20.9406 55.551 20.8169 54.8383 20.5694C54.1355 20.312 53.591 19.9854 53.205 19.5894L53.6356 18.7431C54.0018 19.0994 54.4918 19.4013 55.1055 19.6488C55.7292 19.8864 56.3825 20.0052 57.0655 20.0052C57.7188 20.0052 58.2484 19.926 58.6543 19.7676C59.07 19.5993 59.372 19.3766 59.56 19.0994C59.758 18.8223 59.857 18.5154 59.857 18.1788C59.857 17.773 59.7382 17.4463 59.5006 17.1988C59.273 16.9514 58.971 16.7583 58.5949 16.6198C58.2187 16.4713 57.803 16.3426 57.3476 16.2337C56.8923 16.1248 56.4369 16.011 55.9816 15.8922C55.5262 15.7635 55.1055 15.5952 54.7195 15.3873C54.3433 15.1795 54.0365 14.9073 53.7989 14.5707C53.5712 14.2242 53.4574 13.7738 53.4574 13.2195C53.4574 12.7048 53.591 12.2346 53.8583 11.8089C54.1355 11.3734 54.5562 11.0269 55.1204 10.7695C55.6846 10.5023 56.4072 10.3686 57.2882 10.3686C57.8723 10.3686 58.4514 10.4528 59.0255 10.621C59.5996 10.7794 60.0946 11.0022 60.5103 11.2892L60.1391 12.1653C59.6937 11.8683 59.2185 11.6505 58.7137 11.5119C58.2187 11.3734 57.7386 11.3041 57.2734 11.3041C56.6498 11.3041 56.135 11.3882 55.7292 11.5565C55.3233 11.7248 55.0214 11.9524 54.8234 12.2395C54.6354 12.5167 54.5413 12.8334 54.5413 13.1898C54.5413 13.5957 54.6551 13.9223 54.8828 14.1698C55.1204 14.4173 55.4273 14.6103 55.8034 14.7489C56.1895 14.8875 56.6102 15.0112 57.0655 15.1201C57.5209 15.229 57.9713 15.3478 58.4167 15.4764C58.8721 15.6051 59.2878 15.7734 59.664 15.9813C60.05 16.1793 60.3569 16.4465 60.5846 16.7831C60.8221 17.1196 60.9409 17.5601 60.9409 18.1046C60.9409 18.6094 60.8023 19.0796 60.5252 19.5152C60.248 19.9408 59.8223 20.2873 59.2482 20.5546C58.684 20.8119 57.9564 20.9406 57.0655 20.9406Z" fill="#333333"/>
<path d="M64.315 15.1052H69.8088V16.0407H64.315V15.1052ZM64.4338 19.9012H70.6849V20.8515H63.335V10.4577H70.4622V11.408H64.4338V19.9012Z" fill="#333333"/>
<path d="M76.5906 6.46148C76.5906 6.90716 76.2293 7.26845 75.7836 7.26845C75.3379 7.26845 74.9766 6.90716 74.9766 6.46148C74.9766 6.0158 75.3379 5.65451 75.7836 5.65451C76.2293 5.65451 76.5906 6.0158 76.5906 6.46148Z" fill="#333333"/>
<path d="M69.9362 5.13086C69.9362 5.13086 69.833 4.47369 70.2847 3.80107C70.5613 3.38924 70.9848 3.15993 70.9848 3.15993M68.8634 5.16897C68.8634 5.16897 68.8363 4.06765 69.4111 3.22023C69.9905 2.36603 70.7026 2.07375 70.7026 2.07375M70.2537 1C70.2537 1 69.1796 1.33323 68.3791 2.60859C67.5786 3.88395 67.6744 5.34887 67.6744 5.34887M71.2571 4.76684H71.4242M73.2001 4.76684H72.8818M79.7808 18.2661C80.9999 18.495 82.2552 18.4398 83.4494 18.1048C84.6437 17.7697 85.7446 17.164 86.6667 16.3345C87.5889 15.505 88.3073 14.4741 88.7664 13.3218C89.2255 12.1696 89.4128 10.9271 89.3138 9.69071C89.2148 8.45436 88.9265 7.25746 88.2899 6.19299H84.9925M79.7808 18.2661C78.5618 18.0373 77.412 17.5305 76.4206 16.7851M79.7808 18.2661C79.3248 18.1805 78.8785 18.056 78.4465 17.8947M76.4206 16.7851C75.4292 16.0398 74.6229 15.076 74.0645 13.9685C73.506 12.861 73.4416 12.5138 73.2001 10.9919M76.4206 16.7851C77.0411 17.2517 77.7237 17.6247 78.4465 17.8947M73.2001 10.9919C72.5869 10.0044 72.2328 8.83916 72.2328 7.59124M73.2001 10.9919C73.2439 11.0624 73.289 11.1321 73.3354 11.2007M84.9925 6.19299H89.3138M84.9925 6.19299C85.092 6.64323 85.1444 7.11111 85.1444 7.59124M84.9925 6.19299C84.3537 3.29978 81.7739 1.13546 78.6886 1.13546M85.1444 7.59124C85.1444 11.1567 82.254 14.047 78.6886 14.047C76.4602 14.047 74.4955 12.918 73.3354 11.2007M85.1444 7.59124C85.1444 4.02581 82.254 1.13546 78.6886 1.13546M72.2328 7.59124C72.2328 7.07224 72.2941 6.56755 72.4097 6.08399M72.2328 7.59124C72.2328 8.92828 72.6393 10.1704 73.3354 11.2007M78.6886 1.13546C76.136 1.13546 73.9295 2.61688 72.8818 4.76684M78.4465 17.8947V20.8256M85.2251 17.3689V20.8256M70.295 20.8256H92.8902M72.4908 6.18824L72.4097 6.08399M72.8818 4.76684C72.6791 5.18282 72.5198 5.62383 72.4097 6.08399M72.8818 4.76684H71.4242M72.4097 6.08399C72.4097 6.08399 71.809 5.3304 71.4242 4.84754V4.76684M5.38025 10.4577C6.21175 10.4577 6.86013 10.6854 7.32537 11.1407C7.80052 11.5862 8.03809 12.2098 8.03809 13.0116C8.03809 13.4274 7.949 13.8233 7.77082 14.1995C7.59264 14.5756 7.33032 14.8825 6.98386 15.1201C6.6374 15.3478 6.2068 15.4764 5.69206 15.5061L5.63267 15.2092C5.99892 15.2092 6.35528 15.2636 6.70174 15.3725C7.0581 15.4715 7.37487 15.6348 7.65203 15.8625C7.9292 16.0902 8.15193 16.3772 8.32021 16.7237C8.48849 17.0603 8.57263 17.4711 8.57263 17.9561C8.57263 18.4708 8.48354 18.9163 8.30536 19.2924C8.13708 19.6587 7.90445 19.9557 7.60749 20.1833C7.32042 20.411 6.98881 20.5793 6.61265 20.6882C6.2365 20.7971 5.84549 20.8515 5.43964 20.8515H1.44545C1.32666 20.8515 1.22272 20.807 1.13363 20.7179C1.04454 20.6288 1 20.5249 1 20.4061V10.9032C1 10.7844 1.04454 10.6804 1.13363 10.5913C1.22272 10.5023 1.32666 10.4577 1.44545 10.4577H5.38025ZM5.26146 11.3338H1.77211L1.95029 11.0665V15.2686L1.78696 15.0458H5.26146C5.7762 15.0359 6.2068 14.8677 6.55326 14.541C6.90962 14.2143 7.0878 13.7293 7.0878 13.0859C7.0878 12.5414 6.92942 12.1158 6.61265 11.8089C6.29589 11.4921 5.84549 11.3338 5.26146 11.3338ZM5.3654 15.9367H1.87605L1.95029 15.8476V20.1091L1.8612 19.9755H5.39509C6.02862 19.9755 6.55821 19.8171 6.98386 19.5003C7.40951 19.1737 7.62234 18.6589 7.62234 17.9561C7.62234 17.4612 7.5184 17.0652 7.31052 16.7682C7.10265 16.4713 6.82548 16.2584 6.47902 16.1298C6.13256 16.0011 5.76135 15.9367 5.3654 15.9367ZM10.5678 20.4061C10.5678 20.5249 10.5232 20.6288 10.4341 20.7179C10.345 20.807 10.2411 20.8515 10.1223 20.8515C9.99362 20.8515 9.88473 20.807 9.79564 20.7179C9.71645 20.6288 9.67685 20.5249 9.67685 20.4061V13.5759C9.67685 13.4571 9.71645 13.3531 9.79564 13.264C9.88473 13.175 9.99362 13.1304 10.1223 13.1304C10.251 13.1304 10.3549 13.175 10.4341 13.264C10.5232 13.3531 10.5678 13.4571 10.5678 13.5759V20.4061ZM10.1223 12.1356C9.91443 12.1356 9.75604 12.091 9.64716 12.0019C9.54817 11.9029 9.49867 11.7644 9.49867 11.5862V11.4377C9.49867 11.2595 9.55312 11.1259 9.66201 11.0368C9.78079 10.9378 9.93917 10.8883 10.1371 10.8883C10.3252 10.8883 10.4688 10.9378 10.5678 11.0368C10.6766 11.1259 10.7311 11.2595 10.7311 11.4377V11.5862C10.7311 11.7644 10.6766 11.9029 10.5678 12.0019C10.4688 12.091 10.3203 12.1356 10.1223 12.1356ZM19.2075 17.0504C19.2075 17.8027 19.0442 18.4807 18.7175 19.0846C18.3908 19.6785 17.9454 20.1487 17.3811 20.4952C16.8169 20.8317 16.1735 21 15.4509 21C14.748 21 14.1096 20.8317 13.5354 20.4952C12.9712 20.1487 12.5208 19.6785 12.1842 19.0846C11.8576 18.4807 11.6942 17.8027 11.6942 17.0504C11.6942 16.2881 11.8576 15.6101 12.1842 15.0161C12.5208 14.4222 12.9712 13.952 13.5354 13.6056C14.1096 13.2591 14.748 13.0859 15.4509 13.0859C16.1735 13.0859 16.8169 13.2591 17.3811 13.6056C17.9454 13.952 18.3908 14.4222 18.7175 15.0161C19.0442 15.6101 19.2075 16.2881 19.2075 17.0504ZM18.3166 17.0504C18.3166 16.4465 18.1929 15.912 17.9454 15.4467C17.6979 14.9716 17.3564 14.6004 16.9208 14.3331C16.4952 14.056 16.0052 13.9174 15.4509 13.9174C14.9163 13.9174 14.4313 14.056 13.9957 14.3331C13.5602 14.6004 13.2137 14.9716 12.9564 15.4467C12.7089 15.912 12.5851 16.4465 12.5851 17.0504C12.5851 17.6542 12.7089 18.1887 12.9564 18.654C13.2137 19.1192 13.5602 19.4904 13.9957 19.7676C14.4313 20.0349 14.9163 20.1685 15.4509 20.1685C16.0052 20.1685 16.4952 20.0349 16.9208 19.7676C17.3564 19.4904 17.6979 19.1192 17.9454 18.654C18.1929 18.1887 18.3166 17.6542 18.3166 17.0504ZM20.8781 20.8515V10.4577H25.1099C26.2186 10.4577 27.1887 10.6804 28.0202 11.1259C28.8616 11.5614 29.5149 12.1702 29.9801 12.9522C30.4454 13.7342 30.678 14.635 30.678 15.6546C30.678 16.6742 30.4454 17.575 29.9801 18.357C29.5149 19.139 28.8616 19.7527 28.0202 20.1982C27.1887 20.6337 26.2186 20.8515 25.1099 20.8515H20.8781ZM21.9769 19.9012H25.0505C25.9711 19.9012 26.768 19.723 27.4411 19.3667C28.1241 19.0004 28.6537 18.5005 29.0299 17.867C29.406 17.2236 29.5941 16.4861 29.5941 15.6546C29.5941 14.8132 29.406 14.0757 29.0299 13.4422C28.6537 12.8087 28.1241 12.3138 27.4411 11.9574C26.768 11.5911 25.9711 11.408 25.0505 11.408H21.9769V19.9012ZM37.6593 20.9406C36.8773 20.9406 36.1546 20.8119 35.4914 20.5546C34.8282 20.2873 34.2541 19.9161 33.769 19.4409C33.284 18.9658 32.9029 18.4065 32.6257 17.7631C32.3584 17.1196 32.2248 16.4168 32.2248 15.6546C32.2248 14.8924 32.3584 14.1896 32.6257 13.5462C32.9029 12.9027 33.284 12.3434 33.769 11.8683C34.264 11.3932 34.843 11.0269 35.5063 10.7695C36.1695 10.5023 36.8921 10.3686 37.6741 10.3686C38.4264 10.3686 39.1342 10.4973 39.7974 10.7547C40.4606 11.0022 41.0199 11.3783 41.4753 11.8832L40.7774 12.581C40.3518 12.1455 39.8816 11.8337 39.3668 11.6456C38.8521 11.4476 38.2977 11.3486 37.7038 11.3486C37.0802 11.3486 36.5011 11.4575 35.9666 11.6753C35.432 11.8832 34.9668 12.1851 34.5708 12.581C34.1749 12.9671 33.8631 13.4224 33.6354 13.9471C33.4176 14.4618 33.3087 15.031 33.3087 15.6546C33.3087 16.2782 33.4176 16.8524 33.6354 17.377C33.8631 17.8918 34.1749 18.3471 34.5708 18.7431C34.9668 19.1291 35.432 19.431 35.9666 19.6488C36.5011 19.8567 37.0802 19.9606 37.7038 19.9606C38.2977 19.9606 38.8521 19.8616 39.3668 19.6637C39.8816 19.4657 40.3518 19.1489 40.7774 18.7134L41.4753 19.4112C41.0199 19.9161 40.4606 20.2972 39.7974 20.5546C39.1342 20.8119 38.4215 20.9406 37.6593 20.9406ZM41.8936 20.8515L46.645 10.4577H47.729L52.4804 20.8515H51.3222L46.9568 11.0962H47.4023L43.0369 20.8515H41.8936ZM43.7645 18.0749L44.0911 17.184H50.1344L50.461 18.0749H43.7645ZM57.0655 20.9406C56.2934 20.9406 55.551 20.8169 54.8383 20.5694C54.1355 20.312 53.591 19.9854 53.205 19.5894L53.6356 18.7431C54.0018 19.0994 54.4918 19.4013 55.1055 19.6488C55.7292 19.8864 56.3825 20.0052 57.0655 20.0052C57.7188 20.0052 58.2484 19.926 58.6543 19.7676C59.07 19.5993 59.372 19.3766 59.56 19.0994C59.758 18.8223 59.857 18.5154 59.857 18.1788C59.857 17.773 59.7382 17.4463 59.5006 17.1988C59.273 16.9514 58.971 16.7583 58.5949 16.6198C58.2187 16.4713 57.803 16.3426 57.3476 16.2337C56.8923 16.1248 56.4369 16.011 55.9816 15.8922C55.5262 15.7635 55.1055 15.5952 54.7195 15.3873C54.3433 15.1795 54.0365 14.9073 53.7989 14.5707C53.5712 14.2242 53.4574 13.7738 53.4574 13.2195C53.4574 12.7048 53.591 12.2346 53.8583 11.8089C54.1355 11.3734 54.5562 11.0269 55.1204 10.7695C55.6846 10.5023 56.4072 10.3686 57.2882 10.3686C57.8723 10.3686 58.4514 10.4528 59.0255 10.621C59.5996 10.7794 60.0946 11.0022 60.5103 11.2892L60.1391 12.1653C59.6937 11.8683 59.2185 11.6505 58.7137 11.5119C58.2187 11.3734 57.7386 11.3041 57.2734 11.3041C56.6498 11.3041 56.135 11.3882 55.7292 11.5565C55.3233 11.7248 55.0214 11.9524 54.8234 12.2395C54.6354 12.5167 54.5413 12.8334 54.5413 13.1898C54.5413 13.5957 54.6551 13.9223 54.8828 14.1698C55.1204 14.4173 55.4273 14.6103 55.8034 14.7489C56.1895 14.8875 56.6102 15.0112 57.0655 15.1201C57.5209 15.229 57.9713 15.3478 58.4167 15.4764C58.8721 15.6051 59.2878 15.7734 59.664 15.9813C60.05 16.1793 60.3569 16.4465 60.5846 16.7831C60.8221 17.1196 60.9409 17.5601 60.9409 18.1046C60.9409 18.6094 60.8023 19.0796 60.5252 19.5152C60.248 19.9408 59.8223 20.2873 59.2482 20.5546C58.684 20.8119 57.9564 20.9406 57.0655 20.9406ZM64.315 15.1052H69.8088V16.0407H64.315V15.1052ZM64.4338 19.9012H70.6849V20.8515H63.335V10.4577H70.4622V11.408H64.4338V19.9012ZM76.5906 6.46148C76.5906 6.90716 76.2293 7.26845 75.7836 7.26845C75.3379 7.26845 74.9766 6.90716 74.9766 6.46148C74.9766 6.0158 75.3379 5.65451 75.7836 5.65451C76.2293 5.65451 76.5906 6.0158 76.5906 6.46148Z" stroke="#333333" stroke-width="0.5"/>
</svg>
